<svg xmlns="http://www.w3.org/2000/svg" xmlns:xlink="http://www.w3.org/1999/xlink" width="500" zoomAndPan="magnify" viewBox="0 0 375 374.999991" height="500" preserveAspectRatio="xMidYMid meet" version="1.2"><defs><clipPath id="2478f28f0d"><path d="M 75.925781 81.128906 L 266.425781 81.128906 L 266.425781 240.128906 L 75.925781 240.128906 Z M 75.925781 81.128906 "/></clipPath></defs><g id="30d44ed2b6"><g clip-rule="nonzero" clip-path="url(#2478f28f0d)"><path style=" stroke:none;fill-rule:nonzero;fill:#545454;fill-opacity:1;" d="M 266.34375 122.242188 L 170.820312 81.152344 L 75.925781 123.742188 L 97.539062 133.039062 C 97.539062 133.117188 97.519531 133.175781 97.519531 133.257812 L 97.519531 200.6875 C 95.175781 201.871094 93.558594 204.546875 93.558594 207.679688 C 93.558594 209.507812 94.109375 211.148438 95.214844 212.605469 C 90.171875 223.972656 92.042969 235.695312 92.140625 236.246094 C 92.183594 236.5 92.269531 236.734375 92.398438 236.960938 C 92.527344 237.183594 92.6875 237.375 92.882812 237.542969 C 93.082031 237.707031 93.300781 237.835938 93.539062 237.921875 C 93.78125 238.011719 94.03125 238.058594 94.289062 238.058594 L 94.660156 238.019531 C 94.996094 237.953125 95.300781 237.816406 95.566406 237.605469 C 95.941406 238.351562 96.632812 238.886719 97.460938 238.886719 L 97.480469 238.886719 C 97.660156 239.257812 97.925781 239.554688 98.277344 239.777344 C 98.628906 239.996094 99.015625 240.105469 99.429688 240.105469 L 99.449219 240.105469 C 99.890625 240.101562 100.292969 239.976562 100.660156 239.730469 C 101.023438 239.484375 101.292969 239.15625 101.457031 238.746094 L 101.496094 238.746094 C 101.679688 238.796875 101.863281 238.824219 102.050781 238.824219 C 102.757812 238.824219 103.308594 238.414062 103.722656 237.839844 C 104.042969 238.195312 104.4375 238.421875 104.90625 238.511719 L 105.300781 238.550781 C 105.554688 238.550781 105.804688 238.503906 106.042969 238.417969 C 106.285156 238.332031 106.5 238.207031 106.699219 238.042969 C 106.894531 237.878906 107.054688 237.6875 107.183594 237.464844 C 107.3125 237.246094 107.402344 237.007812 107.445312 236.757812 C 107.546875 236.207031 109.574219 224.464844 104.628906 213.078125 C 105.328125 212.316406 105.863281 211.453125 106.230469 210.484375 C 106.597656 209.519531 106.773438 208.519531 106.757812 207.484375 C 106.738281 204.09375 104.769531 201.296875 102.109375 200.351562 L 102.109375 134.96875 L 123.484375 144.167969 L 123.777344 182.011719 C 123.777344 182.011719 143.636719 169.226562 171.214844 169.011719 C 197.945312 168.792969 219.105469 181.265625 219.105469 181.265625 L 219.105469 143.460938 Z M 266.34375 122.242188 "/></g><g style="fill:#201e1e;fill-opacity:1;"><g transform="translate(125.10026, 215.629864)"><path style="stroke:none" d="M 26.8125 -20.21875 L 29.671875 -20.21875 C 30.234375 -20.21875 30.671875 -20.15625 30.984375 -20.03125 C 31.304688 -19.90625 31.46875 -19.648438 31.46875 -19.265625 C 31.46875 -18.984375 31.375 -18.75 31.1875 -18.5625 C 31 -18.375 30.769531 -18.191406 30.5 -18.015625 C 30.238281 -17.847656 29.976562 -17.628906 29.71875 -17.359375 C 29.457031 -17.085938 29.238281 -16.710938 29.0625 -16.234375 L 23.859375 -1.125 C 23.785156 -0.894531 23.625 -0.671875 23.375 -0.453125 C 23.125 -0.242188 22.601562 -0.0703125 21.8125 0.0625 C 20.925781 0.195312 20.320312 0.210938 20 0.109375 C 19.6875 0.015625 19.460938 -0.203125 19.328125 -0.546875 L 15.859375 -11.125 L 12.515625 -1.09375 C 12.429688 -0.84375 12.265625 -0.613281 12.015625 -0.40625 C 11.765625 -0.207031 11.242188 -0.0507812 10.453125 0.0625 C 9.628906 0.15625 9.0625 0.160156 8.75 0.078125 C 8.445312 0.00390625 8.238281 -0.203125 8.125 -0.546875 L 2.625 -16.15625 C 2.457031 -16.675781 2.25 -17.078125 2 -17.359375 C 1.757812 -17.648438 1.523438 -17.875 1.296875 -18.03125 C 1.066406 -18.195312 0.875 -18.367188 0.71875 -18.546875 C 0.5625 -18.722656 0.484375 -18.960938 0.484375 -19.265625 C 0.484375 -19.671875 0.601562 -19.929688 0.84375 -20.046875 C 1.09375 -20.160156 1.425781 -20.21875 1.84375 -20.21875 L 7.75 -20.21875 C 8.226562 -20.21875 8.59375 -20.148438 8.84375 -20.015625 C 9.09375 -19.878906 9.21875 -19.617188 9.21875 -19.234375 C 9.21875 -18.953125 9.148438 -18.71875 9.015625 -18.53125 C 8.878906 -18.351562 8.738281 -18.175781 8.59375 -18 C 8.445312 -17.820312 8.34375 -17.59375 8.28125 -17.3125 C 8.226562 -17.039062 8.28125 -16.65625 8.4375 -16.15625 L 11.578125 -6.265625 L 14.671875 -14.734375 L 14.25 -16.15625 C 14.070312 -16.675781 13.867188 -17.078125 13.640625 -17.359375 C 13.410156 -17.648438 13.179688 -17.875 12.953125 -18.03125 C 12.734375 -18.195312 12.546875 -18.367188 12.390625 -18.546875 C 12.234375 -18.722656 12.15625 -18.960938 12.15625 -19.265625 C 12.15625 -19.671875 12.28125 -19.929688 12.53125 -20.046875 C 12.789062 -20.160156 13.117188 -20.21875 13.515625 -20.21875 L 19.421875 -20.21875 C 19.898438 -20.21875 20.269531 -20.148438 20.53125 -20.015625 C 20.789062 -19.878906 20.921875 -19.617188 20.921875 -19.234375 C 20.921875 -18.953125 20.851562 -18.71875 20.71875 -18.53125 C 20.582031 -18.351562 20.4375 -18.175781 20.28125 -18 C 20.125 -17.820312 20.007812 -17.59375 19.9375 -17.3125 C 19.875 -17.039062 19.921875 -16.644531 20.078125 -16.125 L 22.875 -6.5 L 26.109375 -16.234375 C 26.304688 -16.796875 26.375 -17.210938 26.3125 -17.484375 C 26.257812 -17.765625 26.144531 -17.984375 25.96875 -18.140625 C 25.800781 -18.296875 25.640625 -18.453125 25.484375 -18.609375 C 25.328125 -18.773438 25.25 -19.015625 25.25 -19.328125 C 25.25 -19.710938 25.398438 -19.957031 25.703125 -20.0625 C 26.015625 -20.164062 26.382812 -20.21875 26.8125 -20.21875 Z M 26.8125 -20.21875 "/></g></g><g style="fill:#201e1e;fill-opacity:1;"><g transform="translate(158.083113, 215.629864)"><path style="stroke:none" d="M 16.703125 -6.984375 C 17.085938 -6.910156 17.316406 -6.738281 17.390625 -6.46875 C 17.460938 -6.195312 17.492188 -5.8125 17.484375 -5.3125 C 17.460938 -4.425781 17.40625 -3.660156 17.3125 -3.015625 C 17.226562 -2.367188 17.128906 -1.835938 17.015625 -1.421875 C 16.878906 -0.898438 16.640625 -0.53125 16.296875 -0.3125 C 15.953125 -0.101562 15.351562 0 14.5 0 L 2.3125 0 C 1.65625 0 1.191406 -0.078125 0.921875 -0.234375 C 0.648438 -0.398438 0.515625 -0.671875 0.515625 -1.046875 C 0.515625 -1.429688 0.585938 -1.710938 0.734375 -1.890625 C 0.878906 -2.078125 1.050781 -2.238281 1.25 -2.375 C 1.457031 -2.507812 1.660156 -2.679688 1.859375 -2.890625 C 2.066406 -3.097656 2.238281 -3.425781 2.375 -3.875 C 2.519531 -4.332031 2.59375 -4.984375 2.59375 -5.828125 L 2.59375 -14.390625 C 2.59375 -15.234375 2.519531 -15.878906 2.375 -16.328125 C 2.238281 -16.785156 2.066406 -17.117188 1.859375 -17.328125 C 1.660156 -17.546875 1.457031 -17.722656 1.25 -17.859375 C 1.050781 -17.992188 0.878906 -18.148438 0.734375 -18.328125 C 0.585938 -18.515625 0.515625 -18.800781 0.515625 -19.1875 C 0.515625 -19.570312 0.648438 -19.835938 0.921875 -19.984375 C 1.191406 -20.140625 1.65625 -20.21875 2.3125 -20.21875 L 13.890625 -20.21875 C 14.765625 -20.21875 15.390625 -20.148438 15.765625 -20.015625 C 16.140625 -19.878906 16.421875 -19.570312 16.609375 -19.09375 C 16.898438 -18.34375 17.160156 -17.378906 17.390625 -16.203125 C 17.484375 -15.722656 17.492188 -15.328125 17.421875 -15.015625 C 17.359375 -14.710938 17.175781 -14.503906 16.875 -14.390625 C 16.332031 -14.191406 15.8125 -14.453125 15.3125 -15.171875 C 14.65625 -16.078125 14 -16.75 13.34375 -17.1875 C 12.6875 -17.632812 11.914062 -17.859375 11.03125 -17.859375 L 9.9375 -17.859375 C 9.226562 -17.859375 8.742188 -17.753906 8.484375 -17.546875 C 8.222656 -17.347656 8.09375 -17.023438 8.09375 -16.578125 L 8.09375 -14.09375 C 8.09375 -13.5625 8.222656 -13.195312 8.484375 -13 C 8.742188 -12.8125 9.140625 -12.707031 9.671875 -12.6875 C 10.273438 -12.707031 10.71875 -12.796875 11 -12.953125 C 11.289062 -13.117188 11.546875 -13.28125 11.765625 -13.4375 C 11.992188 -13.601562 12.289062 -13.6875 12.65625 -13.6875 C 13.039062 -13.6875 13.296875 -13.601562 13.421875 -13.4375 C 13.546875 -13.28125 13.617188 -13.109375 13.640625 -12.921875 L 14.5 -8.75 C 14.59375 -8.269531 14.582031 -7.941406 14.46875 -7.765625 C 14.351562 -7.597656 14.132812 -7.472656 13.8125 -7.390625 C 13.382812 -7.316406 13.03125 -7.414062 12.75 -7.6875 C 12.476562 -7.957031 12.210938 -8.296875 11.953125 -8.703125 C 11.691406 -9.117188 11.378906 -9.488281 11.015625 -9.8125 C 10.660156 -10.144531 10.207031 -10.320312 9.65625 -10.34375 C 9.113281 -10.320312 8.71875 -10.210938 8.46875 -10.015625 C 8.21875 -9.828125 8.09375 -9.460938 8.09375 -8.921875 L 8.09375 -3.640625 C 8.09375 -3.210938 8.226562 -2.894531 8.5 -2.6875 C 8.78125 -2.476562 9.363281 -2.375 10.25 -2.375 L 11.875 -2.375 C 12.644531 -2.375 13.253906 -2.691406 13.703125 -3.328125 C 14.160156 -3.960938 14.660156 -4.828125 15.203125 -5.921875 C 15.453125 -6.398438 15.695312 -6.71875 15.9375 -6.875 C 16.175781 -7.03125 16.429688 -7.066406 16.703125 -6.984375 Z M 16.703125 -6.984375 "/></g></g><g style="fill:#201e1e;fill-opacity:1;"><g transform="translate(178.011792, 215.629864)"><path style="stroke:none" d="M 14.96875 -12.1875 C 16.445312 -11.800781 17.539062 -11.125 18.25 -10.15625 C 18.96875 -9.1875 19.328125 -8.070312 19.328125 -6.8125 C 19.328125 -5.644531 19 -4.539062 18.34375 -3.5 C 17.6875 -2.457031 16.710938 -1.613281 15.421875 -0.96875 C 14.128906 -0.320312 12.523438 0 10.609375 0 L 2.3125 0 C 1.65625 0 1.191406 -0.078125 0.921875 -0.234375 C 0.648438 -0.398438 0.515625 -0.671875 0.515625 -1.046875 C 0.515625 -1.429688 0.585938 -1.710938 0.734375 -1.890625 C 0.878906 -2.078125 1.050781 -2.238281 1.25 -2.375 C 1.457031 -2.507812 1.660156 -2.679688 1.859375 -2.890625 C 2.066406 -3.097656 2.238281 -3.425781 2.375 -3.875 C 2.519531 -4.332031 2.59375 -4.984375 2.59375 -5.828125 L 2.59375 -14.390625 C 2.59375 -15.234375 2.519531 -15.878906 2.375 -16.328125 C 2.238281 -16.785156 2.066406 -17.117188 1.859375 -17.328125 C 1.660156 -17.546875 1.457031 -17.722656 1.25 -17.859375 C 1.050781 -17.992188 0.878906 -18.148438 0.734375 -18.328125 C 0.585938 -18.515625 0.515625 -18.800781 0.515625 -19.1875 C 0.515625 -19.570312 0.648438 -19.835938 0.921875 -19.984375 C 1.191406 -20.140625 1.65625 -20.21875 2.3125 -20.21875 L 9.421875 -20.21875 C 10.828125 -20.21875 12.117188 -20.097656 13.296875 -19.859375 C 14.484375 -19.617188 15.4375 -19.191406 16.15625 -18.578125 C 16.882812 -17.960938 17.257812 -17.066406 17.28125 -15.890625 C 17.300781 -15.054688 17.101562 -14.328125 16.6875 -13.703125 C 16.269531 -13.078125 15.695312 -12.570312 14.96875 -12.1875 Z M 8.09375 -17.1875 L 8.09375 -13.6875 C 8.09375 -13.4375 8.171875 -13.265625 8.328125 -13.171875 C 8.492188 -13.078125 8.675781 -13.023438 8.875 -13.015625 C 9.082031 -13.003906 9.253906 -13 9.390625 -13 C 10.160156 -13 10.785156 -13.175781 11.265625 -13.53125 C 11.742188 -13.882812 11.984375 -14.398438 11.984375 -15.078125 C 11.984375 -15.773438 11.703125 -16.410156 11.140625 -16.984375 C 10.585938 -17.566406 9.800781 -17.859375 8.78125 -17.859375 C 8.644531 -17.859375 8.492188 -17.800781 8.328125 -17.6875 C 8.171875 -17.582031 8.09375 -17.414062 8.09375 -17.1875 Z M 10.484375 -2.34375 C 11.503906 -2.34375 12.242188 -2.625 12.703125 -3.1875 C 13.171875 -3.757812 13.40625 -4.601562 13.40625 -5.71875 C 13.40625 -6.550781 13.226562 -7.332031 12.875 -8.0625 C 12.53125 -8.789062 12.023438 -9.382812 11.359375 -9.84375 C 10.703125 -10.3125 9.875 -10.546875 8.875 -10.546875 C 8.601562 -10.546875 8.40625 -10.492188 8.28125 -10.390625 C 8.15625 -10.296875 8.09375 -10.085938 8.09375 -9.765625 L 8.09375 -4.359375 C 8.09375 -3.648438 8.234375 -3.132812 8.515625 -2.8125 C 8.804688 -2.5 9.460938 -2.34375 10.484375 -2.34375 Z M 10.484375 -2.34375 "/></g></g><g style="fill:#201e1e;fill-opacity:1;"><g transform="translate(199.384508, 215.629864)"><path style="stroke:none" d="M 2.59375 -5.484375 L 2.59375 -14.734375 C 2.59375 -15.460938 2.523438 -16.03125 2.390625 -16.4375 C 2.265625 -16.84375 2.097656 -17.15625 1.890625 -17.375 C 1.691406 -17.59375 1.488281 -17.769531 1.28125 -17.90625 C 1.082031 -18.039062 0.914062 -18.195312 0.78125 -18.375 C 0.644531 -18.5625 0.578125 -18.832031 0.578125 -19.1875 C 0.578125 -19.570312 0.703125 -19.835938 0.953125 -19.984375 C 1.203125 -20.140625 1.675781 -20.21875 2.375 -20.21875 L 8.375 -20.21875 C 9.03125 -20.21875 9.488281 -20.140625 9.75 -19.984375 C 10.007812 -19.835938 10.140625 -19.570312 10.140625 -19.1875 C 10.140625 -18.832031 10.070312 -18.5625 9.9375 -18.375 C 9.800781 -18.195312 9.628906 -18.039062 9.421875 -17.90625 C 9.222656 -17.769531 9.019531 -17.59375 8.8125 -17.375 C 8.601562 -17.15625 8.429688 -16.84375 8.296875 -16.4375 C 8.160156 -16.03125 8.09375 -15.460938 8.09375 -14.734375 L 8.09375 -5.484375 C 8.09375 -4.753906 8.160156 -4.1875 8.296875 -3.78125 C 8.429688 -3.375 8.597656 -3.0625 8.796875 -2.84375 C 8.992188 -2.625 9.1875 -2.445312 9.375 -2.3125 C 9.570312 -2.175781 9.738281 -2.015625 9.875 -1.828125 C 10.007812 -1.648438 10.078125 -1.390625 10.078125 -1.046875 C 10.078125 -0.671875 9.953125 -0.398438 9.703125 -0.234375 C 9.453125 -0.078125 8.992188 0 8.328125 0 L 2.3125 0 C 1.65625 0 1.191406 -0.078125 0.921875 -0.234375 C 0.648438 -0.398438 0.515625 -0.671875 0.515625 -1.046875 C 0.515625 -1.390625 0.585938 -1.648438 0.734375 -1.828125 C 0.878906 -2.015625 1.050781 -2.175781 1.25 -2.3125 C 1.457031 -2.445312 1.660156 -2.625 1.859375 -2.84375 C 2.066406 -3.0625 2.238281 -3.375 2.375 -3.78125 C 2.519531 -4.1875 2.59375 -4.753906 2.59375 -5.484375 Z M 2.59375 -5.484375 "/></g></g><g style="fill:#201e1e;fill-opacity:1;"><g transform="translate(211.515335, 215.629864)"><path style="stroke:none" d="M 17.28125 -20.1875 L 20.421875 -20.1875 C 21.003906 -20.1875 21.394531 -20.125 21.59375 -20 C 21.800781 -19.875 21.90625 -19.640625 21.90625 -19.296875 C 21.90625 -19.046875 21.820312 -18.832031 21.65625 -18.65625 C 21.488281 -18.488281 21.300781 -18.3125 21.09375 -18.125 C 20.894531 -17.945312 20.710938 -17.726562 20.546875 -17.46875 C 20.390625 -17.207031 20.3125 -16.875 20.3125 -16.46875 L 20.3125 -1.53125 C 20.3125 -0.96875 20.203125 -0.570312 19.984375 -0.34375 C 19.773438 -0.113281 19.421875 0 18.921875 0 C 18.441406 0 18.082031 -0.109375 17.84375 -0.328125 C 17.613281 -0.554688 17.5 -0.8125 17.5 -1.09375 C 17.5 -1.5 17.410156 -1.835938 17.234375 -2.109375 C 17.066406 -2.378906 16.8125 -2.695312 16.46875 -3.0625 L 5.3125 -13.78125 L 5.3125 -3.75 C 5.3125 -3.351562 5.394531 -3.023438 5.5625 -2.765625 C 5.726562 -2.515625 5.914062 -2.296875 6.125 -2.109375 C 6.332031 -1.929688 6.519531 -1.75 6.6875 -1.5625 C 6.851562 -1.382812 6.9375 -1.160156 6.9375 -0.890625 C 6.9375 -0.523438 6.820312 -0.289062 6.59375 -0.1875 C 6.375 -0.0820312 6.035156 -0.03125 5.578125 -0.03125 L 2.390625 -0.03125 C 1.835938 -0.03125 1.457031 -0.0976562 1.25 -0.234375 C 1.050781 -0.367188 0.953125 -0.597656 0.953125 -0.921875 C 0.953125 -1.171875 1.03125 -1.378906 1.1875 -1.546875 C 1.351562 -1.722656 1.535156 -1.90625 1.734375 -2.09375 C 1.941406 -2.28125 2.128906 -2.503906 2.296875 -2.765625 C 2.460938 -3.023438 2.546875 -3.351562 2.546875 -3.75 L 2.546875 -14.390625 C 2.546875 -15.234375 2.472656 -15.878906 2.328125 -16.328125 C 2.179688 -16.785156 2.003906 -17.117188 1.796875 -17.328125 C 1.597656 -17.546875 1.394531 -17.722656 1.1875 -17.859375 C 0.988281 -17.992188 0.816406 -18.148438 0.671875 -18.328125 C 0.535156 -18.515625 0.46875 -18.800781 0.46875 -19.1875 C 0.46875 -19.570312 0.597656 -19.835938 0.859375 -19.984375 C 1.128906 -20.140625 1.59375 -20.21875 2.25 -20.21875 L 5.609375 -20.21875 C 6.015625 -20.21875 6.351562 -20.128906 6.625 -19.953125 C 6.90625 -19.785156 7.191406 -19.566406 7.484375 -19.296875 L 17.5 -9.671875 L 17.5 -16.46875 C 17.5 -16.875 17.414062 -17.203125 17.25 -17.453125 C 17.09375 -17.703125 16.910156 -17.914062 16.703125 -18.09375 C 16.503906 -18.28125 16.320312 -18.460938 16.15625 -18.640625 C 16 -18.828125 15.921875 -19.054688 15.921875 -19.328125 C 15.921875 -19.691406 16.03125 -19.925781 16.25 -20.03125 C 16.46875 -20.132812 16.8125 -20.1875 17.28125 -20.1875 Z M 17.28125 -20.1875 "/></g></g><g style="fill:#201e1e;fill-opacity:1;"><g transform="translate(235.371807, 215.629864)"><path style="stroke:none" d="M 5.859375 -4.65625 L 5.578125 -3.953125 C 5.347656 -3.421875 5.253906 -3.019531 5.296875 -2.75 C 5.347656 -2.476562 5.453125 -2.265625 5.609375 -2.109375 C 5.773438 -1.953125 5.9375 -1.789062 6.09375 -1.625 C 6.25 -1.46875 6.328125 -1.234375 6.328125 -0.921875 C 6.328125 -0.554688 6.171875 -0.316406 5.859375 -0.203125 C 5.554688 -0.0859375 5.179688 -0.03125 4.734375 -0.03125 L 1.90625 -0.03125 C 1.34375 -0.03125 0.898438 -0.09375 0.578125 -0.21875 C 0.265625 -0.34375 0.109375 -0.597656 0.109375 -0.984375 C 0.109375 -1.273438 0.203125 -1.507812 0.390625 -1.6875 C 0.578125 -1.875 0.804688 -2.046875 1.078125 -2.203125 C 1.359375 -2.367188 1.640625 -2.585938 1.921875 -2.859375 C 2.203125 -3.128906 2.4375 -3.492188 2.625 -3.953125 L 7.546875 -15.953125 C 7.753906 -16.472656 7.820312 -16.878906 7.75 -17.171875 C 7.6875 -17.472656 7.5625 -17.71875 7.375 -17.90625 C 7.195312 -18.101562 7.019531 -18.296875 6.84375 -18.484375 C 6.675781 -18.679688 6.59375 -18.929688 6.59375 -19.234375 C 6.59375 -19.609375 6.691406 -19.863281 6.890625 -20 C 7.085938 -20.144531 7.332031 -20.21875 7.625 -20.21875 L 11.5 -20.21875 C 12.207031 -20.21875 12.679688 -19.898438 12.921875 -19.265625 L 18.953125 -4.15625 C 19.179688 -3.5625 19.421875 -3.125 19.671875 -2.84375 C 19.921875 -2.5625 20.148438 -2.347656 20.359375 -2.203125 C 20.578125 -2.066406 20.753906 -1.921875 20.890625 -1.765625 C 21.023438 -1.609375 21.09375 -1.367188 21.09375 -1.046875 C 21.09375 -0.671875 20.972656 -0.398438 20.734375 -0.234375 C 20.492188 -0.078125 20.046875 0 19.390625 0 L 13.46875 0 C 12.925781 0 12.53125 -0.078125 12.28125 -0.234375 C 12.03125 -0.398438 11.90625 -0.671875 11.90625 -1.046875 C 11.90625 -1.367188 12 -1.609375 12.1875 -1.765625 C 12.382812 -1.929688 12.585938 -2.09375 12.796875 -2.25 C 13.003906 -2.40625 13.148438 -2.625 13.234375 -2.90625 C 13.328125 -3.1875 13.257812 -3.613281 13.03125 -4.1875 L 12.921875 -4.421875 C 12.816406 -4.671875 12.722656 -4.863281 12.640625 -5 C 12.554688 -5.132812 12.40625 -5.226562 12.1875 -5.28125 C 11.976562 -5.34375 11.644531 -5.378906 11.1875 -5.390625 C 10.738281 -5.398438 10.109375 -5.40625 9.296875 -5.40625 C 8.265625 -5.40625 7.523438 -5.394531 7.078125 -5.375 C 6.628906 -5.351562 6.34375 -5.289062 6.21875 -5.1875 C 6.09375 -5.082031 5.972656 -4.90625 5.859375 -4.65625 Z M 9.328125 -7.796875 C 10.078125 -7.796875 10.609375 -7.804688 10.921875 -7.828125 C 11.234375 -7.847656 11.394531 -7.914062 11.40625 -8.03125 C 11.425781 -8.144531 11.390625 -8.328125 11.296875 -8.578125 L 9.421875 -13.4375 L 7.546875 -8.875 C 7.410156 -8.519531 7.34375 -8.265625 7.34375 -8.109375 C 7.34375 -7.960938 7.488281 -7.875 7.78125 -7.84375 C 8.082031 -7.8125 8.597656 -7.796875 9.328125 -7.796875 Z M 9.328125 -7.796875 "/></g></g><g style="fill:#201e1e;fill-opacity:1;"><g transform="translate(258.390741, 215.629864)"><path style="stroke:none" d="M 15.625 -8.09375 L 17.90625 -4.25 C 18.21875 -3.726562 18.523438 -3.335938 18.828125 -3.078125 C 19.140625 -2.816406 19.421875 -2.609375 19.671875 -2.453125 C 19.921875 -2.296875 20.117188 -2.117188 20.265625 -1.921875 C 20.410156 -1.734375 20.484375 -1.441406 20.484375 -1.046875 C 20.484375 -0.671875 20.359375 -0.398438 20.109375 -0.234375 C 19.859375 -0.078125 19.375 0 18.65625 0 L 13.265625 0 C 12.335938 0 11.875 -0.347656 11.875 -1.046875 C 11.875 -1.347656 11.945312 -1.613281 12.09375 -1.84375 C 12.238281 -2.082031 12.378906 -2.3125 12.515625 -2.53125 C 12.660156 -2.75 12.742188 -3.003906 12.765625 -3.296875 C 12.785156 -3.585938 12.671875 -3.953125 12.421875 -4.390625 L 11.15625 -6.671875 C 10.976562 -7.003906 10.765625 -7.238281 10.515625 -7.375 C 10.265625 -7.519531 9.945312 -7.625 9.5625 -7.6875 C 9.238281 -7.738281 8.910156 -7.738281 8.578125 -7.6875 C 8.253906 -7.644531 8.09375 -7.441406 8.09375 -7.078125 L 8.09375 -5.484375 C 8.09375 -4.753906 8.160156 -4.1875 8.296875 -3.78125 C 8.429688 -3.375 8.597656 -3.0625 8.796875 -2.84375 C 8.992188 -2.625 9.1875 -2.445312 9.375 -2.3125 C 9.570312 -2.175781 9.738281 -2.015625 9.875 -1.828125 C 10.007812 -1.648438 10.078125 -1.390625 10.078125 -1.046875 C 10.078125 -0.671875 9.953125 -0.398438 9.703125 -0.234375 C 9.453125 -0.078125 8.992188 0 8.328125 0 L 2.3125 0 C 1.65625 0 1.191406 -0.078125 0.921875 -0.234375 C 0.648438 -0.398438 0.515625 -0.671875 0.515625 -1.046875 C 0.515625 -1.390625 0.585938 -1.648438 0.734375 -1.828125 C 0.878906 -2.015625 1.050781 -2.175781 1.25 -2.3125 C 1.457031 -2.445312 1.660156 -2.625 1.859375 -2.84375 C 2.066406 -3.0625 2.238281 -3.375 2.375 -3.78125 C 2.519531 -4.1875 2.59375 -4.753906 2.59375 -5.484375 L 2.59375 -14.390625 C 2.59375 -15.234375 2.519531 -15.878906 2.375 -16.328125 C 2.238281 -16.785156 2.066406 -17.117188 1.859375 -17.328125 C 1.660156 -17.546875 1.457031 -17.722656 1.25 -17.859375 C 1.050781 -17.992188 0.878906 -18.148438 0.734375 -18.328125 C 0.585938 -18.515625 0.515625 -18.800781 0.515625 -19.1875 C 0.515625 -19.570312 0.648438 -19.835938 0.921875 -19.984375 C 1.191406 -20.140625 1.65625 -20.21875 2.3125 -20.21875 L 9.59375 -20.21875 C 11.613281 -20.21875 13.304688 -19.910156 14.671875 -19.296875 C 16.046875 -18.679688 17.078125 -17.875 17.765625 -16.875 C 18.460938 -15.875 18.8125 -14.785156 18.8125 -13.609375 C 18.8125 -12.378906 18.550781 -11.273438 18.03125 -10.296875 C 17.507812 -9.328125 16.707031 -8.59375 15.625 -8.09375 Z M 9.5 -9.765625 C 10.5 -9.585938 11.28125 -9.675781 11.84375 -10.03125 C 12.40625 -10.394531 12.796875 -10.875 13.015625 -11.46875 C 13.234375 -12.0625 13.34375 -12.640625 13.34375 -13.203125 C 13.34375 -14.128906 13.160156 -14.957031 12.796875 -15.6875 C 12.429688 -16.414062 11.945312 -16.992188 11.34375 -17.421875 C 10.75 -17.847656 10.097656 -18.0625 9.390625 -18.0625 C 8.804688 -18.0625 8.441406 -18.003906 8.296875 -17.890625 C 8.160156 -17.785156 8.09375 -17.582031 8.09375 -17.28125 L 8.09375 -10.984375 C 8.09375 -10.609375 8.1875 -10.332031 8.375 -10.15625 C 8.570312 -9.988281 8.945312 -9.859375 9.5 -9.765625 Z M 9.5 -9.765625 "/></g></g><g style="fill:#201e1e;fill-opacity:1;"><g transform="translate(125.10026, 238.266683)"><path style="stroke:none" d="M 13.875 -7.078125 C 13.875 -4.835938 13.3125 -3.066406 12.1875 -1.765625 C 11.070312 -0.460938 9.53125 0.1875 7.5625 0.1875 C 5.59375 0.1875 4.046875 -0.460938 2.921875 -1.765625 C 1.804688 -3.066406 1.25 -4.847656 1.25 -7.109375 C 1.25 -9.359375 1.8125 -11.128906 2.9375 -12.421875 C 4.070312 -13.710938 5.617188 -14.359375 7.578125 -14.359375 C 9.546875 -14.359375 11.085938 -13.707031 12.203125 -12.40625 C 13.316406 -11.101562 13.875 -9.328125 13.875 -7.078125 Z M 2.3125 -7.078125 C 2.3125 -5.054688 2.765625 -3.492188 3.671875 -2.390625 C 4.578125 -1.285156 5.875 -0.734375 7.5625 -0.734375 C 9.257812 -0.734375 10.554688 -1.28125 11.453125 -2.375 C 12.359375 -3.46875 12.8125 -5.035156 12.8125 -7.078125 C 12.8125 -9.117188 12.359375 -10.679688 11.453125 -11.765625 C 10.554688 -12.847656 9.265625 -13.390625 7.578125 -13.390625 C 5.898438 -13.390625 4.601562 -12.84375 3.6875 -11.75 C 2.769531 -10.65625 2.3125 -9.097656 2.3125 -7.078125 Z M 2.3125 -7.078125 "/></g></g><g style="fill:#201e1e;fill-opacity:1;"><g transform="translate(140.224764, 238.266683)"><path style="stroke:none" d="M 12.28125 0 L 11.28125 0 L 2.90625 -12.546875 L 2.828125 -12.546875 C 2.910156 -11.046875 2.953125 -9.914062 2.953125 -9.15625 L 2.953125 0 L 2 0 L 2 -14.125 L 2.984375 -14.125 L 11.34375 -1.609375 L 11.40625 -1.609375 C 11.34375 -2.765625 11.3125 -3.863281 11.3125 -4.90625 L 11.3125 -14.125 L 12.28125 -14.125 Z M 12.28125 0 "/></g></g><g style="fill:#201e1e;fill-opacity:1;"><g transform="translate(154.498816, 238.266683)"><path style="stroke:none" d="M 2 0 L 2 -14.125 L 2.984375 -14.125 L 2.984375 -0.921875 L 9.71875 -0.921875 L 9.71875 0 Z M 2 0 "/></g></g><g style="fill:#201e1e;fill-opacity:1;"><g transform="translate(164.655914, 238.266683)"><path style="stroke:none" d="M 2 0 L 2 -14.125 L 2.984375 -14.125 L 2.984375 0 Z M 2 0 "/></g></g><g style="fill:#201e1e;fill-opacity:1;"><g transform="translate(169.642648, 238.266683)"><path style="stroke:none" d="M 12.28125 0 L 11.28125 0 L 2.90625 -12.546875 L 2.828125 -12.546875 C 2.910156 -11.046875 2.953125 -9.914062 2.953125 -9.15625 L 2.953125 0 L 2 0 L 2 -14.125 L 2.984375 -14.125 L 11.34375 -1.609375 L 11.40625 -1.609375 C 11.34375 -2.765625 11.3125 -3.863281 11.3125 -4.90625 L 11.3125 -14.125 L 12.28125 -14.125 Z M 12.28125 0 "/></g></g><g style="fill:#201e1e;fill-opacity:1;"><g transform="translate(183.9167, 238.266683)"><path style="stroke:none" d="M 9.71875 0 L 2 0 L 2 -14.125 L 9.71875 -14.125 L 9.71875 -13.21875 L 2.984375 -13.21875 L 2.984375 -7.875 L 9.34375 -7.875 L 9.34375 -6.96875 L 2.984375 -6.96875 L 2.984375 -0.90625 L 9.71875 -0.90625 Z M 9.71875 0 "/></g></g><g style="fill:#201e1e;fill-opacity:1;"><g transform="translate(194.83726, 238.266683)"><path style="stroke:none" d=""/></g></g><g style="fill:#201e1e;fill-opacity:1;"><g transform="translate(199.978621, 238.266683)"><path style="stroke:none" d="M 9.796875 -3.640625 C 9.796875 -2.460938 9.363281 -1.53125 8.5 -0.84375 C 7.632812 -0.15625 6.484375 0.1875 5.046875 0.1875 C 3.316406 0.1875 1.992188 0 1.078125 -0.375 L 1.078125 -1.359375 C 2.085938 -0.929688 3.382812 -0.71875 4.96875 -0.71875 C 6.125 -0.71875 7.039062 -0.984375 7.71875 -1.515625 C 8.40625 -2.046875 8.75 -2.742188 8.75 -3.609375 C 8.75 -4.140625 8.632812 -4.582031 8.40625 -4.9375 C 8.1875 -5.289062 7.820312 -5.609375 7.3125 -5.890625 C 6.800781 -6.179688 6.050781 -6.492188 5.0625 -6.828125 C 3.625 -7.328125 2.628906 -7.863281 2.078125 -8.4375 C 1.523438 -9.019531 1.25 -9.789062 1.25 -10.75 C 1.25 -11.800781 1.660156 -12.660156 2.484375 -13.328125 C 3.316406 -13.992188 4.382812 -14.328125 5.6875 -14.328125 C 7.007812 -14.328125 8.253906 -14.078125 9.421875 -13.578125 L 9.0625 -12.734375 C 7.894531 -13.222656 6.773438 -13.46875 5.703125 -13.46875 C 4.660156 -13.46875 3.828125 -13.222656 3.203125 -12.734375 C 2.585938 -12.253906 2.28125 -11.597656 2.28125 -10.765625 C 2.28125 -10.242188 2.375 -9.816406 2.5625 -9.484375 C 2.757812 -9.148438 3.070312 -8.847656 3.5 -8.578125 C 3.925781 -8.304688 4.664062 -7.984375 5.71875 -7.609375 C 6.820312 -7.234375 7.648438 -6.863281 8.203125 -6.5 C 8.753906 -6.144531 9.15625 -5.738281 9.40625 -5.28125 C 9.664062 -4.832031 9.796875 -4.285156 9.796875 -3.640625 Z M 9.796875 -3.640625 "/></g></g><g style="fill:#201e1e;fill-opacity:1;"><g transform="translate(210.763882, 238.266683)"><path style="stroke:none" d="M 8.03125 -13.453125 C 6.257812 -13.453125 4.863281 -12.882812 3.84375 -11.75 C 2.820312 -10.613281 2.3125 -9.054688 2.3125 -7.078125 C 2.3125 -5.066406 2.789062 -3.503906 3.75 -2.390625 C 4.71875 -1.273438 6.09375 -0.71875 7.875 -0.71875 C 9.0625 -0.71875 10.148438 -0.867188 11.140625 -1.171875 L 11.140625 -0.296875 C 10.210938 0.0234375 9.046875 0.1875 7.640625 0.1875 C 5.660156 0.1875 4.097656 -0.453125 2.953125 -1.734375 C 1.816406 -3.015625 1.25 -4.804688 1.25 -7.109375 C 1.25 -8.546875 1.519531 -9.8125 2.0625 -10.90625 C 2.601562 -12 3.382812 -12.84375 4.40625 -13.4375 C 5.425781 -14.03125 6.613281 -14.328125 7.96875 -14.328125 C 9.351562 -14.328125 10.585938 -14.070312 11.671875 -13.5625 L 11.28125 -12.671875 C 10.25 -13.191406 9.164062 -13.453125 8.03125 -13.453125 Z M 8.03125 -13.453125 "/></g></g><g style="fill:#201e1e;fill-opacity:1;"><g transform="translate(223.056761, 238.266683)"><path style="stroke:none" d="M 12.234375 0 L 11.234375 0 L 11.234375 -6.953125 L 2.984375 -6.953125 L 2.984375 0 L 2 0 L 2 -14.125 L 2.984375 -14.125 L 2.984375 -7.859375 L 11.234375 -7.859375 L 11.234375 -14.125 L 12.234375 -14.125 Z M 12.234375 0 "/></g></g><g style="fill:#201e1e;fill-opacity:1;"><g transform="translate(237.292156, 238.266683)"><path style="stroke:none" d="M 13.875 -7.078125 C 13.875 -4.835938 13.3125 -3.066406 12.1875 -1.765625 C 11.070312 -0.460938 9.53125 0.1875 7.5625 0.1875 C 5.59375 0.1875 4.046875 -0.460938 2.921875 -1.765625 C 1.804688 -3.066406 1.25 -4.847656 1.25 -7.109375 C 1.25 -9.359375 1.8125 -11.128906 2.9375 -12.421875 C 4.070312 -13.710938 5.617188 -14.359375 7.578125 -14.359375 C 9.546875 -14.359375 11.085938 -13.707031 12.203125 -12.40625 C 13.316406 -11.101562 13.875 -9.328125 13.875 -7.078125 Z M 2.3125 -7.078125 C 2.3125 -5.054688 2.765625 -3.492188 3.671875 -2.390625 C 4.578125 -1.285156 5.875 -0.734375 7.5625 -0.734375 C 9.257812 -0.734375 10.554688 -1.28125 11.453125 -2.375 C 12.359375 -3.46875 12.8125 -5.035156 12.8125 -7.078125 C 12.8125 -9.117188 12.359375 -10.679688 11.453125 -11.765625 C 10.554688 -12.847656 9.265625 -13.390625 7.578125 -13.390625 C 5.898438 -13.390625 4.601562 -12.84375 3.6875 -11.75 C 2.769531 -10.65625 2.3125 -9.097656 2.3125 -7.078125 Z M 2.3125 -7.078125 "/></g></g><g style="fill:#201e1e;fill-opacity:1;"><g transform="translate(252.41666, 238.266683)"><path style="stroke:none" d="M 13.875 -7.078125 C 13.875 -4.835938 13.3125 -3.066406 12.1875 -1.765625 C 11.070312 -0.460938 9.53125 0.1875 7.5625 0.1875 C 5.59375 0.1875 4.046875 -0.460938 2.921875 -1.765625 C 1.804688 -3.066406 1.25 -4.847656 1.25 -7.109375 C 1.25 -9.359375 1.8125 -11.128906 2.9375 -12.421875 C 4.070312 -13.710938 5.617188 -14.359375 7.578125 -14.359375 C 9.546875 -14.359375 11.085938 -13.707031 12.203125 -12.40625 C 13.316406 -11.101562 13.875 -9.328125 13.875 -7.078125 Z M 2.3125 -7.078125 C 2.3125 -5.054688 2.765625 -3.492188 3.671875 -2.390625 C 4.578125 -1.285156 5.875 -0.734375 7.5625 -0.734375 C 9.257812 -0.734375 10.554688 -1.28125 11.453125 -2.375 C 12.359375 -3.46875 12.8125 -5.035156 12.8125 -7.078125 C 12.8125 -9.117188 12.359375 -10.679688 11.453125 -11.765625 C 10.554688 -12.847656 9.265625 -13.390625 7.578125 -13.390625 C 5.898438 -13.390625 4.601562 -12.84375 3.6875 -11.75 C 2.769531 -10.65625 2.3125 -9.097656 2.3125 -7.078125 Z M 2.3125 -7.078125 "/></g></g><g style="fill:#201e1e;fill-opacity:1;"><g transform="translate(267.541163, 238.266683)"><path style="stroke:none" d="M 2 0 L 2 -14.125 L 2.984375 -14.125 L 2.984375 -0.921875 L 9.71875 -0.921875 L 9.71875 0 Z M 2 0 "/></g></g><path style="fill:none;stroke-width:2;stroke-linecap:butt;stroke-linejoin:miter;stroke:#545454;stroke-opacity:1;stroke-miterlimit:4;" d="M -0.0000925957 1.002247 L 273.322866 1.002247 " transform="matrix(0.749142,0,0,0.749142,93.390694,252.62808)"/><path style="fill:none;stroke-width:2;stroke-linecap:butt;stroke-linejoin:miter;stroke:#545454;stroke-opacity:1;stroke-miterlimit:4;" d="M -0.00253889 0.997472 L 92.762464 1.000406 " transform="matrix(0.749963,0.00742959,-0.00742959,0.749963,229.505409,176.439452)"/><path style="fill:none;stroke-width:2;stroke-linecap:butt;stroke-linejoin:miter;stroke:#545454;stroke-opacity:1;stroke-miterlimit:4;" d="M -0.000217511 1.001329 L 102.046675 1.001329 " transform="matrix(0,-0.74977,0.74977,0,297.628139,254.062337)"/><g style="fill:#201e1e;fill-opacity:1;"><g transform="translate(229.491172, 167.603427)"><path style="stroke:none" d="M 5.5 -2.046875 C 5.5 -1.378906 5.253906 -0.851562 4.765625 -0.46875 C 4.285156 -0.0820312 3.640625 0.109375 2.828125 0.109375 C 1.859375 0.109375 1.117188 0 0.609375 -0.21875 L 0.609375 -0.765625 C 1.171875 -0.523438 1.894531 -0.40625 2.78125 -0.40625 C 3.4375 -0.40625 3.953125 -0.550781 4.328125 -0.84375 C 4.710938 -1.144531 4.90625 -1.535156 4.90625 -2.015625 C 4.90625 -2.316406 4.84375 -2.566406 4.71875 -2.765625 C 4.59375 -2.960938 4.382812 -3.140625 4.09375 -3.296875 C 3.8125 -3.460938 3.394531 -3.640625 2.84375 -3.828125 C 2.03125 -4.109375 1.46875 -4.410156 1.15625 -4.734375 C 0.851562 -5.054688 0.703125 -5.488281 0.703125 -6.03125 C 0.703125 -6.625 0.929688 -7.109375 1.390625 -7.484375 C 1.859375 -7.859375 2.457031 -8.046875 3.1875 -8.046875 C 3.9375 -8.046875 4.632812 -7.90625 5.28125 -7.625 L 5.09375 -7.140625 C 4.425781 -7.421875 3.796875 -7.5625 3.203125 -7.5625 C 2.617188 -7.5625 2.148438 -7.425781 1.796875 -7.15625 C 1.453125 -6.882812 1.28125 -6.515625 1.28125 -6.046875 C 1.28125 -5.753906 1.332031 -5.515625 1.4375 -5.328125 C 1.539062 -5.140625 1.710938 -4.96875 1.953125 -4.8125 C 2.203125 -4.664062 2.625 -4.488281 3.21875 -4.28125 C 3.832031 -4.0625 4.296875 -3.851562 4.609375 -3.65625 C 4.921875 -3.457031 5.144531 -3.226562 5.28125 -2.96875 C 5.425781 -2.71875 5.5 -2.410156 5.5 -2.046875 Z M 5.5 -2.046875 "/></g></g><g style="fill:#201e1e;fill-opacity:1;"><g transform="translate(236.587426, 167.603427)"><path style="stroke:none" d="M 1.125 0 L 1.125 -7.9375 L 1.671875 -7.9375 L 1.671875 0 Z M 1.125 0 "/></g></g><g style="fill:#201e1e;fill-opacity:1;"><g transform="translate(240.429787, 167.603427)"><path style="stroke:none" d="M 6.890625 0 L 6.328125 0 L 1.625 -7.046875 L 1.59375 -7.046875 C 1.632812 -6.203125 1.65625 -5.566406 1.65625 -5.140625 L 1.65625 0 L 1.125 0 L 1.125 -7.9375 L 1.671875 -7.9375 L 6.375 -0.90625 L 6.40625 -0.90625 C 6.375 -1.550781 6.359375 -2.164062 6.359375 -2.75 L 6.359375 -7.9375 L 6.890625 -7.9375 Z M 6.890625 0 "/></g></g><g style="fill:#201e1e;fill-opacity:1;"><g transform="translate(249.4838, 167.603427)"><path style="stroke:none" d="M 4.5 -7.546875 C 3.507812 -7.546875 2.726562 -7.226562 2.15625 -6.59375 C 1.582031 -5.957031 1.296875 -5.082031 1.296875 -3.96875 C 1.296875 -2.84375 1.566406 -1.96875 2.109375 -1.34375 C 2.648438 -0.71875 3.421875 -0.40625 4.421875 -0.40625 C 5.085938 -0.40625 5.695312 -0.488281 6.25 -0.65625 L 6.25 -0.171875 C 5.726562 0.015625 5.078125 0.109375 4.296875 0.109375 C 3.179688 0.109375 2.300781 -0.25 1.65625 -0.96875 C 1.019531 -1.6875 0.703125 -2.691406 0.703125 -3.984375 C 0.703125 -4.796875 0.851562 -5.507812 1.15625 -6.125 C 1.457031 -6.738281 1.894531 -7.210938 2.46875 -7.546875 C 3.050781 -7.878906 3.71875 -8.046875 4.46875 -8.046875 C 5.25 -8.046875 5.941406 -7.898438 6.546875 -7.609375 L 6.328125 -7.109375 C 5.753906 -7.398438 5.144531 -7.546875 4.5 -7.546875 Z M 4.5 -7.546875 "/></g></g><g style="fill:#201e1e;fill-opacity:1;"><g transform="translate(257.426066, 167.603427)"><path style="stroke:none" d="M 5.453125 0 L 1.125 0 L 1.125 -7.9375 L 5.453125 -7.9375 L 5.453125 -7.421875 L 1.671875 -7.421875 L 1.671875 -4.421875 L 5.25 -4.421875 L 5.25 -3.90625 L 1.671875 -3.90625 L 1.671875 -0.515625 L 5.453125 -0.515625 Z M 5.453125 0 "/></g></g><g style="fill:#201e1e;fill-opacity:1;"><g transform="translate(264.598244, 167.603427)"><path style="stroke:none" d=""/></g></g><g style="fill:#201e1e;fill-opacity:1;"><g transform="translate(268.527376, 167.603427)"><path style="stroke:none" d="M 3.703125 0 L 3.171875 0 L 3.171875 -5.78125 C 3.171875 -6.300781 3.191406 -6.84375 3.234375 -7.40625 C 3.179688 -7.351562 3.125 -7.300781 3.0625 -7.25 C 3.007812 -7.195312 2.453125 -6.757812 1.390625 -5.9375 L 1.078125 -6.3125 L 3.234375 -7.9375 L 3.703125 -7.9375 Z M 3.703125 0 "/></g></g><g style="fill:#201e1e;fill-opacity:1;"><g transform="translate(275.911057, 167.603427)"><path style="stroke:none" d="M 5.625 -4.5625 C 5.625 -3.519531 5.484375 -2.648438 5.203125 -1.953125 C 4.929688 -1.253906 4.535156 -0.734375 4.015625 -0.390625 C 3.492188 -0.0546875 2.863281 0.109375 2.125 0.109375 C 1.75 0.109375 1.398438 0.0625 1.078125 -0.03125 L 1.078125 -0.5 C 1.234375 -0.445312 1.421875 -0.40625 1.640625 -0.375 C 1.859375 -0.351562 2.023438 -0.34375 2.140625 -0.34375 C 3.035156 -0.34375 3.734375 -0.664062 4.234375 -1.3125 C 4.742188 -1.957031 5.03125 -2.898438 5.09375 -4.140625 L 5.015625 -4.140625 C 4.753906 -3.785156 4.441406 -3.515625 4.078125 -3.328125 C 3.710938 -3.140625 3.332031 -3.046875 2.9375 -3.046875 C 2.195312 -3.046875 1.625 -3.25 1.21875 -3.65625 C 0.8125 -4.0625 0.609375 -4.640625 0.609375 -5.390625 C 0.609375 -6.179688 0.832031 -6.820312 1.28125 -7.3125 C 1.726562 -7.8125 2.3125 -8.0625 3.03125 -8.0625 C 3.550781 -8.0625 4.003906 -7.921875 4.390625 -7.640625 C 4.785156 -7.367188 5.085938 -6.96875 5.296875 -6.4375 C 5.515625 -5.914062 5.625 -5.289062 5.625 -4.5625 Z M 3.03125 -7.578125 C 2.457031 -7.578125 2 -7.382812 1.65625 -7 C 1.320312 -6.613281 1.15625 -6.085938 1.15625 -5.421875 C 1.15625 -4.785156 1.3125 -4.304688 1.625 -3.984375 C 1.9375 -3.660156 2.390625 -3.5 2.984375 -3.5 C 3.347656 -3.5 3.6875 -3.578125 4 -3.734375 C 4.3125 -3.898438 4.5625 -4.117188 4.75 -4.390625 C 4.9375 -4.660156 5.03125 -4.9375 5.03125 -5.21875 C 5.03125 -5.632812 4.945312 -6.023438 4.78125 -6.390625 C 4.613281 -6.765625 4.378906 -7.054688 4.078125 -7.265625 C 3.773438 -7.472656 3.425781 -7.578125 3.03125 -7.578125 Z M 3.03125 -7.578125 "/></g></g><g style="fill:#201e1e;fill-opacity:1;"><g transform="translate(283.294738, 167.603427)"><path style="stroke:none" d="M 3.15625 -8.0625 C 3.832031 -8.0625 4.375 -7.890625 4.78125 -7.546875 C 5.1875 -7.203125 5.390625 -6.738281 5.390625 -6.15625 C 5.390625 -5.75 5.257812 -5.390625 5 -5.078125 C 4.75 -4.765625 4.34375 -4.476562 3.78125 -4.21875 C 4.46875 -3.9375 4.953125 -3.625 5.234375 -3.28125 C 5.515625 -2.9375 5.65625 -2.523438 5.65625 -2.046875 C 5.65625 -1.390625 5.425781 -0.863281 4.96875 -0.46875 C 4.519531 -0.0820312 3.910156 0.109375 3.140625 0.109375 C 2.335938 0.109375 1.722656 -0.0703125 1.296875 -0.4375 C 0.867188 -0.800781 0.65625 -1.332031 0.65625 -2.03125 C 0.65625 -2.507812 0.804688 -2.925781 1.109375 -3.28125 C 1.410156 -3.632812 1.875 -3.941406 2.5 -4.203125 C 1.914062 -4.472656 1.503906 -4.757812 1.265625 -5.0625 C 1.023438 -5.375 0.90625 -5.742188 0.90625 -6.171875 C 0.90625 -6.546875 1 -6.875 1.1875 -7.15625 C 1.382812 -7.445312 1.65625 -7.671875 2 -7.828125 C 2.34375 -7.984375 2.726562 -8.0625 3.15625 -8.0625 Z M 1.203125 -1.953125 C 1.203125 -1.453125 1.367188 -1.0625 1.703125 -0.78125 C 2.046875 -0.507812 2.523438 -0.375 3.140625 -0.375 C 3.734375 -0.375 4.207031 -0.519531 4.5625 -0.8125 C 4.925781 -1.101562 5.109375 -1.5 5.109375 -2 C 5.109375 -2.445312 4.96875 -2.8125 4.6875 -3.09375 C 4.40625 -3.375 3.859375 -3.664062 3.046875 -3.96875 C 2.378906 -3.71875 1.90625 -3.4375 1.625 -3.125 C 1.34375 -2.8125 1.203125 -2.421875 1.203125 -1.953125 Z M 3.140625 -7.578125 C 2.628906 -7.578125 2.21875 -7.453125 1.90625 -7.203125 C 1.601562 -6.953125 1.453125 -6.609375 1.453125 -6.171875 C 1.453125 -5.910156 1.507812 -5.679688 1.625 -5.484375 C 1.738281 -5.296875 1.898438 -5.125 2.109375 -4.96875 C 2.328125 -4.8125 2.691406 -4.628906 3.203125 -4.421875 C 3.785156 -4.648438 4.207031 -4.898438 4.46875 -5.171875 C 4.726562 -5.453125 4.859375 -5.785156 4.859375 -6.171875 C 4.859375 -6.597656 4.703125 -6.9375 4.390625 -7.1875 C 4.085938 -7.445312 3.671875 -7.578125 3.140625 -7.578125 Z M 3.140625 -7.578125 "/></g></g><g style="fill:#201e1e;fill-opacity:1;"><g transform="translate(290.67842, 167.603427)"><path style="stroke:none" d="M 1.8125 0 L 5.078125 -7.40625 L 0.59375 -7.40625 L 0.59375 -7.9375 L 5.71875 -7.9375 L 5.71875 -7.53125 L 2.453125 0 Z M 1.8125 0 "/></g></g></g></svg>